PathFileType	4	(X/Y/Z)	D:\TRACE\spot_10-12-23\spot_arm_body_motion_1_8-platform.trc
DataRate	CameraRate	NumFrames	NumMarkers	Units	OrigDataRate	OrigDataStartFrame	OrigNumFrames
100.00	100.00	      24	5	mm	100.00	5251	      7000
Frame#	Time	Left_Front			Right_Front			Left_Aft			Right_Aft			Post			
		X1	Y1	Z1	X2	Y2	Z2	X3	Y3	Z3	X4	Y4	Z4	X5	Y5	Z5	

5251	52.500	-751.20782	21.28702	-648.66705	815.97833	19.59764	-624.43781	-682.73004	4.90121	489.62628	724.15314	2.01945	591.56964	36.15553	754.09784	-948.18719	
5252	52.510	-752.00732	20.93815	-648.99780	815.29462	19.18063	-624.49854	-683.43884	5.51286	489.52383	723.42609	2.38501	591.52832	35.39206	753.58563	-948.91058	
5253	52.520	-752.87256	20.49345	-649.27753	814.51392	18.57946	-624.67303	-684.06091	5.86539	489.36984	722.70709	2.82197	591.34998	35.00805	752.79156	-949.37946	
5254	52.530	-753.45984	20.09058	-649.28339	813.80707	18.03535	-624.71130	-685.10077	6.33015	489.17230	722.02789	3.31698	591.28406	34.17466	752.20172	-950.27649	
5255	52.540	-754.13849	19.35031	-649.39111	813.07916	17.49883	-624.85303	-685.78156	6.41832	489.04126	721.33209	3.64930	591.20087	33.28672	751.49310	-951.13324	
5256	52.550	-755.00751	18.97790	-649.39105	812.30579	17.04202	-625.01892	-686.22327	6.64685	489.02713	720.48322	4.09350	591.07788	32.73488	750.41919	-951.59467	
5257	52.560	-755.89856	18.56369	-649.58832	811.50183	16.63596	-625.26074	-687.28680	7.03115	488.87198	719.66589	4.37223	591.02795	31.74384	749.88507	-952.61884	
5258	52.570	-756.74451	18.03518	-649.97766	810.68146	16.11906	-625.39038	-688.04584	7.46420	488.63611	718.86847	4.77661	590.84729	30.80539	749.38025	-953.41455	
5259	52.580	-757.38995	17.60819	-649.89514	809.72314	15.46899	-625.50183	-688.77454	7.83115	488.44949	718.08099	5.30543	590.67682	30.07172	748.40167	-954.11401	
5260	52.590	-758.19305	16.86488	-649.93842	809.12823	15.27570	-625.59259	-689.57593	8.00475	488.40198	717.36127	5.61313	590.44037	29.35480	747.62518	-954.93695	
5261	52.600	-758.67328	16.26603	-650.28400	808.28992	14.67952	-625.62653	-690.38867	8.27691	488.32266	716.51868	5.99734	590.32721	28.61205	747.04547	-955.75549	
5262	52.610	-759.93604	16.21867	-650.29669	807.53064	14.17402	-625.67334	-691.33527	8.73294	488.18649	715.64355	6.35257	590.25085	27.84973	746.39929	-956.37122	
5263	52.620	-760.73132	15.73903	-650.55072	806.66321	13.86876	-625.85162	-692.11414	9.07014	488.07559	714.88684	6.69860	590.15161	27.13251	745.62872	-956.75360	
5264	52.630	-761.51776	15.45405	-650.48456	805.81445	13.45911	-626.04346	-692.82214	9.47672	488.08853	713.96576	7.15530	590.14063	26.50019	745.12756	-957.34485	
5265	52.640	-762.23639	14.79152	-650.59808	804.92108	12.88672	-626.15106	-693.61786	9.71780	487.96451	713.28369	7.43614	590.12830	25.43054	744.34283	-957.93768	
5266	52.650	-763.15222	14.18530	-650.71619	804.05981	12.35837	-626.39514	-694.57483	10.10853	487.73880	712.32440	7.82162	589.95789	24.52636	743.55859	-958.27179	
5267	52.660	-764.01733	13.62682	-650.99792	803.26740	11.94630	-626.41718	-695.42377	10.41072	487.58710	711.43433	8.25108	589.73242	23.75005	742.87585	-958.75140	
5268	52.670	-765.04352	13.24033	-651.02045	802.48059	11.42662	-626.48444	-696.32971	10.63317	487.48315	710.65302	8.63753	589.56598	22.85894	742.21631	-959.36243	
5269	52.680	-765.85797	12.89342	-650.96509	801.41254	10.72825	-626.64862	-697.20251	11.00072	487.47131	709.72467	9.07869	589.42316	21.92012	741.54144	-959.87299	
5270	52.690	-766.60516	12.37158	-651.23615	800.36206	10.27217	-626.72040	-697.81372	11.34978	487.37393	708.80695	9.36494	589.32043	21.43013	740.92383	-960.20862	
5271	52.700	-767.74255	12.08015	-651.46448	799.66937	10.13881	-626.94684	-699.07605	11.77012	487.12894	707.85223	9.69208	589.20618	20.21485	740.16071	-961.17664	
5272	52.710	-768.56653	11.51538	-651.54608	798.67017	9.49775	-627.09839	-699.79663	11.88104	487.02585	707.03687	10.11385	589.11792	19.50428	739.36932	-961.88196	
5273	52.720	-769.32471	10.91832	-651.65735	797.83118	9.04398	-627.12732	-700.57056	12.18045	487.04047	706.20886	10.57558	589.02380	18.43835	738.89545	-962.67114	
5274	52.730	-770.05328	10.32407	-651.68494	797.17603	8.67963	-627.21161	-701.64349	12.54944	486.92603	705.31354	11.01023	588.97406	17.56888	738.20111	-963.35205	
